<?xml version="1.0" ?><!DOCTYPE svg  PUBLIC '-//W3C//DTD SVG 1.1//EN'  'http://www.w3.org/Graphics/SVG/1.1/DTD/svg11.dtd'><svg enable-background="new 0 0 53.763 53.763" height="53.763px" id="Layer_1" version="1.1" viewBox="0 0 53.763 53.763" width="53.763px" xml:space="preserve" xmlns="http://www.w3.org/2000/svg" xmlns:xlink="http://www.w3.org/1999/xlink"><circle cx="26.373" cy="26.496" r="26.881"/><path d="M31.504,13.297c-4.744-1.813-6.395-5.56-6.395-5.56c0.028,2.594-1.671,4.359-3.296,5.454  C14.889,15.209,9.829,21.603,9.829,29.18c0,9.196,7.455,16.652,16.652,16.652s16.652-7.456,16.652-16.652  C43.134,21.732,38.246,15.428,31.504,13.297z M35.107,42.031c-0.687,0.696-1.695,1.533-5.105,1.837  c-3.41,0.302-5.205-1.393-5.205-1.393c-0.162-0.717,0.656-0.918,0.656-0.918c0.958,0.786,2.633,1.463,5.336,1.22  c2.704-0.241,3.854-1.32,3.854-1.32C35.147,41.507,35.107,42.031,35.107,42.031z M28.15,39.512c0.561-1.969,3.534-2.008,3.534-2.008  c2.2-0.076,2.701,2.008,2.701,2.008c-0.323,0.514-0.812,0.294-0.812,0.294c-0.57-1.358-1.847-1.184-1.847-1.184  c-1.749,0-2.556,1.184-2.556,1.184C28.415,40.234,28.15,39.512,28.15,39.512z M38.547,39.227c0,0-1.654,0.162-3.954-3.026  c0,0-0.747-1.13-2.048-1.149c0,0-1.322-0.333-3.723,1.562c0,0-3.107,2.573-7.143,2.896c0,0-4.762,0.282-4.642-4.682  c0,0,0.363-5.527,6.981-5.326c0,0,2.099,0.322,4.439,2.018c0,0,2.542,2.22,3.834,2.18c0,0,1.25,0.201,4.64-2.342  c0,0,4.521-3.793,4.924,1.775C41.856,33.133,41.412,38.904,38.547,39.227z" fill="#FFFFFF"/></svg>